# xmcd
#
# Track frame offsets:
#  150
#  24493
#  44888
#
# Disc length: 1020 seconds
#
# Revision: 0
# Processed by: cddbd v1.5.1PL0 Copyright (c) Steve Scherf et al.
# Submitted via: Collectorz.com_Music_Collector 6.9
#
DISCID=2303fa03
DTITLE=Guy - Let's Chill
DYEAR=1991
DGENRE=
TTITLE0=LP Version
TTITLE1=Edit
TTITLE2=Instrumental
EXTD=
EXTT0=
EXTT1=
EXTT2=
PLAYORDER=
